<?xml version="1.0" encoding="utf-8"?>
<!-- Generator: Adobe Illustrator 21.1.0, SVG Export Plug-In . SVG Version: 6.00 Build 0)  -->
<svg version="1.1" id="Eggistentialism" xmlns="http://www.w3.org/2000/svg" xmlns:xlink="http://www.w3.org/1999/xlink" x="0px"
	 y="0px" viewBox="0 0 1200 1200" style="enable-background:new 0 0 1200 1200;" xml:space="preserve">
<style type="text/css">
	.st0{fill:none;stroke:#000000;stroke-width:2;stroke-linecap:round;stroke-miterlimit:10;}
</style>
<path class="st0" d="M533.51,85.72c-45.17,14.75-106.79,38.66-133.55,81.02c-38.66,61.19,11.87,59.86,61.14,54.04
	c-52.09,4.43-136.38,49.62-128.49,113.55c8.61,69.79,102.18,47.18,146.06,31.78"/>
<path class="st0" d="M617.78,86.74c-41.3-8.24-72.07,29.21-84.39,63.84c-14.66,41.19-18.46,87.41-15.11,130.78
	c2.76,35.77,7.31,81.81,50.73,87.74c36.61,5,64.79-22.67,75.83-55.29c5.48-16.18,9.8-37.54,0.87-53.38
	c-12.3-21.8-33.49-2.74-51.19-8.74"/>
<path class="st0" d="M726.57,121.85c-14.57,1.23-24.43,20.42-29.71,32.05c-6.55,14.42-10.08,30.02-12.95,45.53
	c-6.48,34.94-14.82,72.65-13.44,108.32c1.1,28.66,15.47,62.58,47.29,67.41c29.97,4.54,55.61-19.05,65.63-45.29
	c3.26-8.55,5.28-17.54,6.47-26.59c0.9-6.84,3.7-18.85,1-25.46c-2.95-7.21-16.25-6.8-22.8-7.93c-10.72-1.85-21.44-3.7-32.17-5.55"/>
<path class="st0" d="M832.49,225.99c-8.62-4.24-18.75,0.13-24.58,6.98c-6.81,8-7.14,18.67-3.59,28.2
	c8.65,23.23,34.07,31.85,52.38,45.61c14.91,11.2,31.7,30.16,28.65,50.44c-3.78,25.16-43.45,17.41-59.63,11.22"/>
<path class="st0" d="M254.89,440.96c35.79-7.55,72.61-10.18,109.11-7.79"/>
<path class="st0" d="M294.94,439.23c-28.97,80.72-43.92,166.45-43.99,252.21"/>
<path class="st0" d="M210.22,694.68c42.21,3.7,84.8,3.13,126.89-1.69"/>
<path class="st0" d="M477.14,448.14c-2.15-13.76-16.87-21.78-29.7-22.2c-12.78-0.43-25.29,5.42-34.42,14.15
	c-22.99,22.01-19.13,57.85-7.69,84.6c13.05,30.49,34.92,56.31,48.99,86.36c12,25.63,27.06,65.95-0.83,87.38
	c-21.63,16.62-78.52,0.02-75.69-32.24"/>
<path class="st0" d="M488.85,410.21c41.61-4.35,83.32-7.7,125.09-10.07"/>
<path class="st0" d="M540.84,409.29c-8.02,99.77-10.46,199.98-7.3,300.02"/>
<path class="st0" d="M644.26,446.01c-32.28-1.69-64.61,18.21-70.97,51.15c-5.86,30.3,16.76,63.07,49.18,61.39
	c0.33-0.02,0.43,0.42,0.13,0.55c-22.3,9.82-38.01,30.22-46.27,52.74c-8.15,22.21-13.49,55.73,1.38,76.26
	c29.31,40.46,98.48,24.9,120.87-14.19"/>
<path class="st0" d="M720.04,709.19c-12.39-63.46-21.79-127.49-28.17-191.83c-1.58-15.93-2.98-31.87-4.18-47.83
	c-0.81-10.73-4.37-25.78,1.62-35.72c7-11.6,16.79-1.59,20.17,6.87c5.11,12.78,8.25,26.69,11.16,40.12
	c12.05,55.63,12.98,113.29,28.56,168.2c3.17,11.16,18.21,69.14,38.9,53.3c9.03-6.91,6.02-24.09,5.74-33.72
	c-0.47-15.95-1.15-31.9-2.03-47.83c-4.02-72.66-12.26-145.08-24.69-216.78"/>
<path class="st0" d="M796.48,409.29c40.23,15.34,85.9,15.95,126.53,1.68"/>
<path class="st0" d="M861.04,423.89c9.21,17.54,14.21,35.73,18.64,54.9c5.79,25.01,10.29,50.32,12.96,75.86
	c4.96,47.46,2.81,95.08-2.22,142.44"/>
<path class="st0" d="M207.28,763.71c34.5,7.86,70.75,7.89,105.26,0.09"/>
<path class="st0" d="M257.29,780.92c4.23,78.36,25.04,155.78,60.65,225.71"/>
<path class="st0" d="M274.03,999.57c12.71,9.83,31.03,8.81,46.12,7.57c18.58-1.53,36.93-5.79,54.27-12.65"/>
<path class="st0" d="M339.32,948.44c-12.9-26.03-13.5-57.29-3.58-84.39c10.14-27.7,33.87-55.64,64.58-59.92
	c14.17-1.98,29.67,2.06,39.58,12.76c11.23,12.14,13,29.9,14.93,45.58c4.82,39.23,5.6,78.79,8.18,118.2
	c1.4,21.36,3.25,42.75,6.7,63.89c3,18.4,7.76,37.71,20.55,51.95"/>
<path class="st0" d="M347.77,888.67c34.46,20.15,75.64,28.56,115.24,23.54"/>
<path class="st0" d="M494.44,750.41c3.31,78.06,7.65,156.63,17.45,234.18c4.46,35.26,9.37,74.64,24.06,107.41
	c6.96,15.53,25.95,17.61,40.97,20.49c19.12,3.67,38.67,5.12,58.12,4.28"/>
<path class="st0" d="M532.97,747.18c28.8,6.91,58.67,9.32,88.2,7.09"/>
<path class="st0" d="M579.8,758.3c16.85,83.59-1.77,172.43,22.85,254.07"/>
<path class="st0" d="M569.76,1010.82c27.99,8.79,56.23-1.51,87.32-2.5"/>
<path class="st0" d="M753.39,769.23c-30.52-19.75-74.97-4.9-92.18,25.75c-18.89,33.63-4.01,78.69,26.28,100.23
	c34.92,24.84,87.84,18.95,115.42,55.33c26.42,34.84,4.61,87.15-26.33,111.11c-37.12,28.74-93.13,23.78-125.32-10.3"/>
<path class="st0" d="M845.69,1036.77c-13.19-72.73-21.15-148.85-17.28-222.84c0.76-14.55,2.77-29.69,9.92-42.63
	c5.53-10,18.6-25,31.46-17.77c12.06,6.78,12.24,29.23,14.28,40.82c3.37,19.1,6.74,38.2,10.11,57.3
	c-2.04-31.75-1.04-63.78,3.22-95.31c2.77-20.49,9.91-49.09,35.55-49.55c28.3-0.5,41.72,28.54,45.22,52.39
	c4.48,30.51,2.31,62.15-2.29,92.5c-5.5,36.36-15.11,71.94-24.74,107.38"/>
</svg>
