<?xml version="1.0" encoding="utf-8"?>
<!-- Generator: Adobe Illustrator 21.1.0, SVG Export Plug-In . SVG Version: 6.00 Build 0)  -->
<svg version="1.1" id="Layer_6" xmlns="http://www.w3.org/2000/svg" xmlns:xlink="http://www.w3.org/1999/xlink" x="0px" y="0px"
	 viewBox="0 0 1200 1200" style="enable-background:new 0 0 1200 1200;" xml:space="preserve">
<style type="text/css">
	.st0{fill:none;stroke:#000000;stroke-miterlimit:10;}
</style>
<path class="st0" d="M347.75,248.8c-13.7-5.81-28.65,6.29-35.54,19.48c-5.22,10.01-8.05,22.54-2.51,32.37
	c5.54,9.84,22.09,12.77,27.82,3.03c-9.57-4-20.19,2.58-27.6,9.83c-22.34,21.83-34.86,52.33-39.12,83.28
	c-1.63,11.85-2.08,24.22,1.98,35.47c6.15,17.02,21.83,29.03,38.53,36.02c34.64,14.49,76.49,10.18,107.45-11.07"/>
<path class="st0" d="M512.77,96.35c-4.37-24.71-40.47-31.6-60.69-16.74c-20.22,14.86-27.41,41.5-31.27,66.3
	c-5.23,33.58-6.83,67.71-5.1,101.65c3.39,66.65,19.73,132.61,47.83,193.14c3.57,7.7,7.45,15.47,13.53,21.38
	c15.8,15.37,42.28,13.72,61.65,3.2c33.94-18.44,52.09-61.8,41.42-98.92c-21.32-1.71-42.63-3.43-63.95-5.14"/>
<path class="st0" d="M689.64,74.21c-11.07-26.46-47.04-38.87-72.08-24.85c-21.74,12.17-31.52,38.01-37.11,62.29
	c-24.6,106.87,0.62,220.44,48.99,318.86c10.72,21.81,30.17,46.61,53.58,40.1c11.38-3.16,19.41-13.2,25.47-23.34
	c14.93-25,22.7-54.22,22.15-83.33c-0.1-5.05-0.64-10.57-4.19-14.15c-2.84-2.86-6.99-3.86-10.92-4.73
	c-15.43-3.44-30.85-6.89-46.28-10.33"/>
<path class="st0" d="M737.71,142.88c30.96,9.72,64.13,12.31,96.22,7.53"/>
<path class="st0" d="M815.53,465.88c-8.74-104.13-17.49-208.27-26.23-312.4"/>
<path class="st0" d="M862.61,445.04c-3.82-44-4.12-88.3-0.9-132.35c0.86-11.72,2.2-24.07,9.16-33.54
	c6.96-9.47,21.52-14.35,30.78-7.12c5.7,4.45,7.86,11.97,9.64,18.98c16.07,63.5,27.51,128.17,34.19,193.32"/>
<path class="st0" d="M856.93,365.18c22.72-0.5,45.41-2.47,67.88-5.91"/>
<path class="st0" d="M303.19,579.45c-15.56-35.37-64.16-51.33-97.66-32.07c-29.17,16.76-42.45,54.12-37.08,87.33
	s26.5,62.18,52.15,83.95s55.82,37.39,85.35,53.52c15.96,8.72,32.13,17.91,44.15,31.57c12.02,13.66,19.31,32.8,14.4,50.31
	c-6.42,22.87-30.95,35.83-54.28,40.31c-34.65,6.65-71.67,0.05-101.88-18.16"/>
<path class="st0" d="M349.58,542.86c-2.09-1.41-4.36,2.5-2.77,4.45c1.59,1.96,4.52,1.97,7.03,1.8
	c80.52-5.35,160.42-19.85,237.69-43.13"/>
<path class="st0" d="M457.83,540.42c1.17,112.87,7.51,225.68,18.98,337.97"/>
<path class="st0" d="M544.94,585.96c2.53,98.72,14.15,196.95,25.76,295.02c-0.15-1.75-0.3-3.49-0.45-5.24"/>
<path class="st0" d="M536.72,605.09c-2.45-0.09-4.89-0.18-7.34-0.27c2.22-17.25,15.03-31.72,30.23-40.16
	c15.2-8.44,32.65-11.76,49.83-14.44c8.46-1.32,17.45-2.45,25.31,0.94c7.28,3.14,12.52,9.77,16.02,16.88
	c6.59,13.4,7.85,29.33,3.45,43.6c-4.5,14.57-14.48,26.9-25.85,37.06c-19.66,17.57-44.13,29.69-70.01,34.69"/>
<path class="st0" d="M599.32,668.62c22.14-3.22,48.59-4.9,62.86,12.33c5.69,6.87,8.33,15.73,10.05,24.48
	c8.93,45.62-4.01,92.72-0.91,139.1"/>
<path class="st0" d="M871.28,549.12c-36.4-14.24-75.59,14.06-99.12,45.28c-25.39,33.7-43.39,73.84-46.23,115.93
	c-2.84,42.1,10.6,86.07,40.39,115.94c32.28,32.38,81.83,45.38,126.57,35.93c44.73-9.45,83.88-40.12,106.51-79.85
	c26.48-46.48,30.26-105.96,6.96-154.11s-74.1-82.62-127.58-83.4"/>
<path class="st0" d="M359.67,945.17c-8.66,61.91-1.93,125.92,19.41,184.67"/>
<path class="st0" d="M356.01,967.61c-3.88-0.31-2.41-6.44,0.28-9.24c15.52-16.16,37.76-27.7,59.91-24.31
	c22.14,3.39,41.54,25.68,36.38,47.48c-3.34,14.08-15.22,24.42-27.32,32.36c-13.81,9.06-30.44,16.56-46.44,12.48"/>
<path class="st0" d="M517.15,951.66c-10.29,48.73-15.45,98.54-15.38,148.34c0.03,22.52,1.98,47.15,17.44,63.52"/>
<path class="st0" d="M500.75,1047.58c-2.6,4.77,5.47,7.93,10.87,7.4c52.18-5.11,103.68-17.14,152.73-35.68
	c-2.78,2.88-6.55,4.77-10.52,5.27"/>
<path class="st0" d="M663.22,967.71c-1.45,60.65-0.94,121.34,1.53,181.95"/>
<path class="st0" d="M792.83,913.8c-21.03-3.12-37.43,17.18-48.51,35.33c-10.9,17.88-21.23,41.57-8.66,58.32
	c9.08,12.1,26.12,14.35,41.24,14.76c11.56,0.31,24.66-0.54,32.18-9.34c-5.23-9.77-20.25-6.64-29.25-0.18
	c-18.08,12.98-30.07,34.71-29.55,56.96c0.52,22.25,14.38,44.11,35.01,52.45c30.59,12.38,65.44-6.09,88.01-30.17
	c30.16-32.18,48.16-75.5,49.67-119.58"/>
</svg>
