{
    "accessors" : [
        {
            "bufferView" : 0, 
            "componentType" : 5123, 
            "count" : 1920, 
            "max" : [
                1919
            ], 
            "min" : [
                0
            ], 
            "type" : "SCALAR"
        }, 
        {
            "bufferView" : 1, 
            "componentType" : 5126, 
            "count" : 1920, 
            "max" : [
                2.3922457695007324, 
                2.1972169876098633, 
                4.545560359954834
            ], 
            "min" : [
                -2.177325487136841, 
                -1.6155712604522705, 
                -4.2687811851501465
            ], 
            "type" : "VEC3"
        }, 
        {
            "bufferView" : 2, 
            "componentType" : 5126, 
            "count" : 1920, 
            "max" : [
                0.9920774102210999, 
                0.9435238838195801, 
                0.9882301092147827
            ], 
            "min" : [
                -0.9920774102210999, 
                -0.9435238838195801, 
                -0.9882299900054932
            ], 
            "type" : "VEC3"
        }, 
        {
            "bufferView" : 3, 
            "componentType" : 5123, 
            "count" : 1920, 
            "max" : [
                1919
            ], 
            "min" : [
                0
            ], 
            "type" : "SCALAR"
        }, 
        {
            "bufferView" : 4, 
            "componentType" : 5126, 
            "count" : 1920, 
            "max" : [
                2.3922457695007324, 
                2.1972169876098633, 
                4.545560359954834
            ], 
            "min" : [
                -2.177325487136841, 
                -1.6155712604522705, 
                -4.2687811851501465
            ], 
            "type" : "VEC3"
        }, 
        {
            "bufferView" : 5, 
            "componentType" : 5126, 
            "count" : 1920, 
            "max" : [
                0.9920774102210999, 
                0.9435238838195801, 
                0.9882301092147827
            ], 
            "min" : [
                -0.9920774102210999, 
                -0.9435238838195801, 
                -0.9882299900054932
            ], 
            "type" : "VEC3"
        }, 
        {
            "bufferView" : 6, 
            "componentType" : 5123, 
            "count" : 1920, 
            "max" : [
                1919
            ], 
            "min" : [
                0
            ], 
            "type" : "SCALAR"
        }, 
        {
            "bufferView" : 7, 
            "componentType" : 5126, 
            "count" : 1920, 
            "max" : [
                2.3922457695007324, 
                2.1972169876098633, 
                4.545560359954834
            ], 
            "min" : [
                -2.177325487136841, 
                -1.6155712604522705, 
                -4.2687811851501465
            ], 
            "type" : "VEC3"
        }, 
        {
            "bufferView" : 8, 
            "componentType" : 5126, 
            "count" : 1920, 
            "max" : [
                0.9920774102210999, 
                0.9435238838195801, 
                0.9882301092147827
            ], 
            "min" : [
                -0.9920774102210999, 
                -0.9435238838195801, 
                -0.9882299900054932
            ], 
            "type" : "VEC3"
        }, 
        {
            "bufferView" : 9, 
            "componentType" : 5123, 
            "count" : 1920, 
            "max" : [
                1919
            ], 
            "min" : [
                0
            ], 
            "type" : "SCALAR"
        }, 
        {
            "bufferView" : 10, 
            "componentType" : 5126, 
            "count" : 1920, 
            "max" : [
                2.3922457695007324, 
                2.1972169876098633, 
                4.545560359954834
            ], 
            "min" : [
                -2.177325487136841, 
                -1.6155712604522705, 
                -4.2687811851501465
            ], 
            "type" : "VEC3"
        }, 
        {
            "bufferView" : 11, 
            "componentType" : 5126, 
            "count" : 1920, 
            "max" : [
                0.9920774102210999, 
                0.9435238838195801, 
                0.9882301092147827
            ], 
            "min" : [
                -0.9920774102210999, 
                -0.9435238838195801, 
                -0.9882299900054932
            ], 
            "type" : "VEC3"
        }, 
        {
            "bufferView" : 12, 
            "componentType" : 5123, 
            "count" : 1920, 
            "max" : [
                1919
            ], 
            "min" : [
                0
            ], 
            "type" : "SCALAR"
        }, 
        {
            "bufferView" : 13, 
            "componentType" : 5126, 
            "count" : 1920, 
            "max" : [
                2.3922457695007324, 
                2.1972169876098633, 
                4.545560359954834
            ], 
            "min" : [
                -2.177325487136841, 
                -1.6155712604522705, 
                -4.2687811851501465
            ], 
            "type" : "VEC3"
        }, 
        {
            "bufferView" : 14, 
            "componentType" : 5126, 
            "count" : 1920, 
            "max" : [
                0.9920774102210999, 
                0.9435238838195801, 
                0.9882301092147827
            ], 
            "min" : [
                -0.9920774102210999, 
                -0.9435238838195801, 
                -0.9882299900054932
            ], 
            "type" : "VEC3"
        }, 
        {
            "bufferView" : 15, 
            "componentType" : 5123, 
            "count" : 1920, 
            "max" : [
                1919
            ], 
            "min" : [
                0
            ], 
            "type" : "SCALAR"
        }, 
        {
            "bufferView" : 16, 
            "componentType" : 5126, 
            "count" : 1920, 
            "max" : [
                2.3922457695007324, 
                2.1972169876098633, 
                4.545560359954834
            ], 
            "min" : [
                -2.177325487136841, 
                -1.6155712604522705, 
                -4.2687811851501465
            ], 
            "type" : "VEC3"
        }, 
        {
            "bufferView" : 17, 
            "componentType" : 5126, 
            "count" : 1920, 
            "max" : [
                0.9920774102210999, 
                0.9435238838195801, 
                0.9882301092147827
            ], 
            "min" : [
                -0.9920774102210999, 
                -0.9435238838195801, 
                -0.9882299900054932
            ], 
            "type" : "VEC3"
        }
    ], 
    "asset" : {
        "generator" : "Khronos Blender glTF 2.0 exporter", 
        "version" : "2.0"
    }, 
    "bufferViews" : [
        {
            "buffer" : 0, 
            "byteLength" : 3840, 
            "byteOffset" : 0, 
            "target" : 34963
        }, 
        {
            "buffer" : 0, 
            "byteLength" : 23040, 
            "byteOffset" : 3840, 
            "target" : 34962
        }, 
        {
            "buffer" : 0, 
            "byteLength" : 23040, 
            "byteOffset" : 26880, 
            "target" : 34962
        }, 
        {
            "buffer" : 0, 
            "byteLength" : 3840, 
            "byteOffset" : 49920, 
            "target" : 34963
        }, 
        {
            "buffer" : 0, 
            "byteLength" : 23040, 
            "byteOffset" : 53760, 
            "target" : 34962
        }, 
        {
            "buffer" : 0, 
            "byteLength" : 23040, 
            "byteOffset" : 76800, 
            "target" : 34962
        }, 
        {
            "buffer" : 0, 
            "byteLength" : 3840, 
            "byteOffset" : 99840, 
            "target" : 34963
        }, 
        {
            "buffer" : 0, 
            "byteLength" : 23040, 
            "byteOffset" : 103680, 
            "target" : 34962
        }, 
        {
            "buffer" : 0, 
            "byteLength" : 23040, 
            "byteOffset" : 126720, 
            "target" : 34962
        }, 
        {
            "buffer" : 0, 
            "byteLength" : 3840, 
            "byteOffset" : 149760, 
            "target" : 34963
        }, 
        {
            "buffer" : 0, 
            "byteLength" : 23040, 
            "byteOffset" : 153600, 
            "target" : 34962
        }, 
        {
            "buffer" : 0, 
            "byteLength" : 23040, 
            "byteOffset" : 176640, 
            "target" : 34962
        }, 
        {
            "buffer" : 0, 
            "byteLength" : 3840, 
            "byteOffset" : 199680, 
            "target" : 34963
        }, 
        {
            "buffer" : 0, 
            "byteLength" : 23040, 
            "byteOffset" : 203520, 
            "target" : 34962
        }, 
        {
            "buffer" : 0, 
            "byteLength" : 23040, 
            "byteOffset" : 226560, 
            "target" : 34962
        }, 
        {
            "buffer" : 0, 
            "byteLength" : 3840, 
            "byteOffset" : 249600, 
            "target" : 34963
        }, 
        {
            "buffer" : 0, 
            "byteLength" : 23040, 
            "byteOffset" : 253440, 
            "target" : 34962
        }, 
        {
            "buffer" : 0, 
            "byteLength" : 23040, 
            "byteOffset" : 276480, 
            "target" : 34962
        }
    ], 
    "buffers" : [
        {
            "byteLength" : 299520, 
            "uri" : "clouds_02.bin"
        }
    ], 
    "materials" : [
        {
            "name" : "Material", 
            "pbrMetallicRoughness" : {
                "baseColorFactor" : [
                    0.8000000715255737, 
                    0.7100934386253357, 
                    0.9872137308120728, 
                    1.0
                ], 
                "metallicFactor" : 0.0
            }
        }
    ], 
    "meshes" : [
        {
            "name" : "Icosphere.031", 
            "primitives" : [
                {
                    "attributes" : {
                        "NORMAL" : 2, 
                        "POSITION" : 1
                    }, 
                    "indices" : 0, 
                    "material" : 0
                }
            ]
        }, 
        {
            "name" : "Icosphere.024", 
            "primitives" : [
                {
                    "attributes" : {
                        "NORMAL" : 5, 
                        "POSITION" : 4
                    }, 
                    "indices" : 3, 
                    "material" : 0
                }
            ]
        }, 
        {
            "name" : "Icosphere.028", 
            "primitives" : [
                {
                    "attributes" : {
                        "NORMAL" : 8, 
                        "POSITION" : 7
                    }, 
                    "indices" : 6, 
                    "material" : 0
                }
            ]
        }, 
        {
            "name" : "Icosphere.020", 
            "primitives" : [
                {
                    "attributes" : {
                        "NORMAL" : 11, 
                        "POSITION" : 10
                    }, 
                    "indices" : 9, 
                    "material" : 0
                }
            ]
        }, 
        {
            "name" : "Icosphere.040", 
            "primitives" : [
                {
                    "attributes" : {
                        "NORMAL" : 14, 
                        "POSITION" : 13
                    }, 
                    "indices" : 12, 
                    "material" : 0
                }
            ]
        }, 
        {
            "name" : "Icosphere.014", 
            "primitives" : [
                {
                    "attributes" : {
                        "NORMAL" : 17, 
                        "POSITION" : 16
                    }, 
                    "indices" : 15, 
                    "material" : 0
                }
            ]
        }
    ], 
    "nodes" : [
        {
            "mesh" : 5, 
            "name" : "Icosphere.003", 
            "rotation" : [
                0.3958914875984192, 
                0.4563541114330292, 
                0.20954668521881104, 
                0.7688311338424683
            ], 
            "scale" : [
                -0.3368441164493561, 
                -0.3368440866470337, 
                -0.3368441164493561
            ], 
            "translation" : [
                0.9158905744552612, 
                -3.7690699100494385, 
                -7.550407886505127
            ]
        }, 
        {
            "mesh" : 3, 
            "name" : "Icosphere.006", 
            "rotation" : [
                0.31557872891426086, 
                -0.5755986571311951, 
                -0.6899948120117188, 
                0.3049648106098175
            ], 
            "scale" : [
                -0.4375722408294678, 
                -0.4375722408294678, 
                -0.43757230043411255
            ], 
            "translation" : [
                -0.9890151023864746, 
                0.5861707329750061, 
                -8.329207420349121
            ]
        }, 
        {
            "mesh" : 1, 
            "name" : "Icosphere.009", 
            "rotation" : [
                -0.48319727182388306, 
                -0.869986355304718, 
                0.03906465321779251, 
                0.09010040014982224
            ], 
            "scale" : [
                -0.3368440270423889, 
                -0.3368440866470337, 
                -0.33684414625167847
            ], 
            "translation" : [
                -7.945375919342041, 
                -2.741574764251709, 
                1.1866648197174072
            ]
        }, 
        {
            "mesh" : 2, 
            "name" : "Icosphere.013", 
            "rotation" : [
                -0.13770346343517303, 
                0.07866765558719635, 
                -0.821712851524353, 
                0.5473912954330444
            ], 
            "scale" : [
                -0.437572181224823, 
                -0.43757227063179016, 
                -0.43757230043411255
            ], 
            "translation" : [
                -7.659130096435547, 
                2.463540554046631, 
                2.4425675868988037
            ]
        }, 
        {
            "mesh" : 0, 
            "name" : "Icosphere.015", 
            "rotation" : [
                -0.13963520526885986, 
                0.8537797927856445, 
                -0.3202214241027832, 
                0.38603150844573975
            ], 
            "scale" : [
                -0.3605487048625946, 
                -0.3605487048625946, 
                -0.36054864525794983
            ], 
            "translation" : [
                0.19790077209472656, 
                -6.471111297607422, 
                5.785811424255371
            ]
        }, 
        {
            "mesh" : 4, 
            "name" : "Icosphere.024", 
            "rotation" : [
                -0.7355274558067322, 
                0.662539541721344, 
                0.14009499549865723, 
                0.020351877436041832
            ], 
            "scale" : [
                -0.4375722110271454, 
                -0.43757227063179016, 
                -0.43757233023643494
            ], 
            "translation" : [
                8.2745943069458, 
                0.18482089042663574, 
                -1.48133385181427
            ]
        }, 
        {
            "children" : [
                0, 
                1, 
                2, 
                3, 
                4, 
                5
            ], 
            "name" : "parent_moon.002", 
            "rotation" : [
                0.20703676342964172, 
                0.8267085552215576, 
                0.11275732517242432, 
                0.5108566880226135
            ], 
            "scale" : [
                -0.18850556015968323, 
                -0.18850556015968323, 
                -0.18850556015968323
            ]
        }
    ], 
    "scene" : 0, 
    "scenes" : [
        {
            "name" : "Scene", 
            "nodes" : [
                6
            ]
        }
    ]
}
