{
    "accessors" : [
        {
            "bufferView" : 0, 
            "componentType" : 5121, 
            "count" : 240, 
            "max" : [
                239
            ], 
            "min" : [
                0
            ], 
            "type" : "SCALAR"
        }, 
        {
            "bufferView" : 1, 
            "componentType" : 5126, 
            "count" : 240, 
            "max" : [
                0.9510578513145447, 
                1.0, 
                0.9999971389770508
            ], 
            "min" : [
                -0.9510578513145447, 
                -1.0, 
                -1.0000028610229492
            ], 
            "type" : "VEC3"
        }, 
        {
            "bufferView" : 2, 
            "componentType" : 5126, 
            "count" : 240, 
            "max" : [
                0.9920773506164551, 
                0.9435239434242249, 
                0.9435215592384338
            ], 
            "min" : [
                -0.9920773506164551, 
                -0.9435239434242249, 
                -0.9435215592384338
            ], 
            "type" : "VEC3"
        }, 
        {
            "bufferView" : 3, 
            "componentType" : 5126, 
            "count" : 240, 
            "max" : [
                1.0, 
                0.8196078538894653, 
                0.6901960968971252, 
                1.0
            ], 
            "min" : [
                1.0, 
                0.8196078538894653, 
                0.6901960968971252, 
                1.0
            ], 
            "type" : "VEC4"
        }
    ], 
    "asset" : {
        "generator" : "Khronos Blender glTF 2.0 exporter", 
        "version" : "2.0"
    }, 
    "bufferViews" : [
        {
            "buffer" : 0, 
            "byteLength" : 240, 
            "byteOffset" : 0, 
            "target" : 34963
        }, 
        {
            "buffer" : 0, 
            "byteLength" : 2880, 
            "byteOffset" : 240, 
            "target" : 34962
        }, 
        {
            "buffer" : 0, 
            "byteLength" : 2880, 
            "byteOffset" : 3120, 
            "target" : 34962
        }, 
        {
            "buffer" : 0, 
            "byteLength" : 3840, 
            "byteOffset" : 6000, 
            "target" : 34962
        }
    ], 
    "buffers" : [
        {
            "byteLength" : 9840, 
            "uri" : "pn_moon_05.bin"
        }
    ], 
    "materials" : [
        {
            "emissiveFactor" : [
                0.019999999552965164, 
                0.019999999552965164, 
                0.019999999552965164
            ], 
            "name" : "Material.001", 
            "pbrMetallicRoughness" : {
                "baseColorFactor" : [
                    0.800000011920929, 
                    0.800000011920929, 
                    0.800000011920929, 
                    1.0
                ], 
                "metallicFactor" : 0.0
            }
        }
    ], 
    "meshes" : [
        {
            "name" : "Icosphere.001", 
            "primitives" : [
                {
                    "attributes" : {
                        "COLOR_0" : 3, 
                        "NORMAL" : 2, 
                        "POSITION" : 1
                    }, 
                    "indices" : 0, 
                    "material" : 0
                }
            ]
        }
    ], 
    "nodes" : [
        {
            "mesh" : 0, 
            "name" : "moon_05", 
            "scale" : [
                -0.18850556015968323, 
                -0.18850556015968323, 
                -0.18850556015968323
            ], 
            "translation" : [
                2.6751922899137526e-10, 
                -2.6751922899137526e-10, 
                -2.290001392364502
            ]
        }
    ], 
    "scene" : 0, 
    "scenes" : [
        {
            "name" : "Scene", 
            "nodes" : [
                0
            ]
        }
    ]
}
