<?xml version="1.0" encoding="utf-8"?>
<!-- Generator: Adobe Illustrator 21.1.0, SVG Export Plug-In . SVG Version: 6.00 Build 0)  -->
<svg version="1.1" id="Layer_5" xmlns="http://www.w3.org/2000/svg" xmlns:xlink="http://www.w3.org/1999/xlink" x="0px" y="0px"
	 viewBox="0 0 1200 1200" style="enable-background:new 0 0 1200 1200;" xml:space="preserve">
<style type="text/css">
	.st0{fill:none;stroke:#000000;stroke-miterlimit:10;}
</style>
<path class="st0" d="M489.6,190.14c-7.71-19.95-22.19-38.97-45.26-39.83c-17.86-0.66-35.27,8.9-48.4,20.26
	c-15.62,13.52-25.08,31.12-24.99,52.24c0.1,21.39,16.64,65.47,44.82,61.87c4.08-0.52,16.25-7.62,12.01-13.93
	c-1.6-2.39-16.91-0.04-20.11,0.2c-16.73,1.26-33.22,5.25-48.75,11.6c-29.14,11.92-54.23,32.53-71.47,58.88
	c-31.86,48.68-43.17,126.8,17.09,157.87c53.43,27.54,155.09,41.46,185.07-26.93"/>
<path class="st0" d="M670.81,137.59c-11.75-28-30.47-60.54-64.16-63.92c-27.91-2.79-47.76,19.54-60.35,41.58
	c-33.28,58.25-52.25,131.41-52.38,198.32c-0.12,62.13,17.99,126.24,58.26,174.49c19.16,22.96,46.11,43.61,77.77,38.44
	c29.36-4.79,52.29-28.14,61.68-55.58c11.85-34.62,4.45-72.05-8.81-105.08c-3.89-9.69-8.3-19.15-12.91-28.51
	c-0.85-1.71-4.1-9.77-5.12-10.16c-1.4-0.53-13.74,4.87-15.4,5.38c-19.05,5.89-38.91,9.23-58.84,9.88"/>
<path class="st0" d="M823.83,248.33c-3.68-17.74-22.69-28.66-39.91-27.78c-18.85,0.96-34.98,13.99-45.03,29.14
	c-23.17,34.92-30.68,90.93-24.4,131.68c6.21,40.32,32.13,74.01,71.08,87.52c35.47,12.3,84.53,5.67,102.19-31.68
	c5.67-12,8.13-25.7,9.67-38.8c1.25-10.64,4.58-28.75,0.42-38.94c-5.34-13.1-19.05-2.03-27.83,2.46
	c-13.12,6.7-26.24,13.41-39.35,20.11"/>
<path class="st0" d="M327.29,592.35c-63.37,61.15-113.49,135.95-145.96,217.8"/>
<path class="st0" d="M203.66,563.29c46.7-3.1,53.71,58.13,54.15,91.29c0.64,48.97-9.25,97.14-14.91,145.58
	c-9.16,78.31-4.87,177.45,70.74,223.61"/>
<path class="st0" d="M341.32,602.5c-9.23,6.18,23.6,17.3,26.59,18.03c11.9,2.91,24.21,3.8,36.42,4.23
	c30.45,1.07,60.88-1.77,91.17-4.57c-1.25-0.84-2.5-1.68-3.75-2.52"/>
<path class="st0" d="M410.95,626.88c-4.53,160.38,4.26,321.14,26.26,480.08"/>
<path class="st0" d="M361.44,1060.07c1.12,11.69,18.52,20.4,27.24,25.89c12.33,7.76,25.42,14.31,39,19.6
	c26.35,10.27,54.59,15.75,82.89,15.78"/>
<path class="st0" d="M528.99,910.43c28.48,5.8,58.75,2.5,85.31-9.3"/>
<path class="st0" d="M650.07,657.48c-25.98,2.01-51.96,4.03-77.94,6.04c-15.49,1.2-48.27-2.81-54.05,16.34
	c-2.79,9.23-0.94,21-0.83,30.51c0.15,12.72,0.46,25.45,0.93,38.16c0.95,25.43,2.56,50.84,4.82,76.19
	c4.43,49.72,11.38,99.23,20.8,148.25c4.62,24.03,9.83,47.95,15.63,71.72c5.52,22.64,9.38,49.67,19.57,70.77
	c10.47,21.68,46.66,11.02,65.55,8.49c29.18-3.91,58.05-10.3,86.17-19.03"/>
<path class="st0" d="M742.74,606.01c18.41,155.65,26.87,318.46,78.92,467.48"/>
<path class="st0" d="M633.94,599.02c0.52,20.54,77.14,8.13,89.4,6.13c17.22-2.8,34.22-6.97,50.78-12.49
	c6.04-2.01,47.4-14.38,47.39-21.15c-0.49-0.99-1.03-1.07-1.64-0.26"/>
<path class="st0" d="M841.15,626.83c-7.58,48.73,42.98,116.03,97.05,95.47c26.65-10.13,41.18-42.09,47.2-67.98
	c6.81-29.35,5.56-60.04,3.32-89.86c17.23,91.37,34.29,185.66,16.36,278.32c-6.99,36.14-18.46,85.29-48.27,110.04
	c-25.52,21.18-68.13,12.97-82.26-17.94"/>
</svg>
