<?xml version="1.0" encoding="utf-8"?>
<!-- Generator: Adobe Illustrator 21.1.0, SVG Export Plug-In . SVG Version: 6.00 Build 0)  -->
<svg version="1.1" id="Layer_7" xmlns="http://www.w3.org/2000/svg" xmlns:xlink="http://www.w3.org/1999/xlink" x="0px" y="0px"
	 viewBox="0 0 1200 1200" style="enable-background:new 0 0 1200 1200;" xml:space="preserve">
<style type="text/css">
	.st0{fill:none;stroke:#000000;stroke-miterlimit:10;}
</style>
<path class="st0" d="M596.82,90.84c-10.43-8.37-26.32-6.71-37.52,0.59c-11.21,7.3-18.66,19.04-25.11,30.75
	c-30.86,55.98-46.84,119.19-54.33,182.67c-5.65,47.87-6.61,96.74,3.04,143.96c4.14,20.27,10.39,40.51,22.24,57.46
	c11.85,16.96,29.96,30.38,50.51,32.8c23.89,2.82,48.12-10.03,62.05-29.64c13.94-19.61,18.31-44.96,15.32-68.83
	c-19.22-6.71-38.31-13.76-57.27-21.17"/>
<path class="st0" d="M458.91,198.45c-20.75-15.11-49.64-16.62-73.4-6.91c-23.76,9.72-42.51,29.52-54.37,52.29
	c-11.36,21.81-16.76,48.27-7.54,71.06c9.22,22.79,36.36,38.94,59.33,30.19c-39.22-3.65-70.85,31.25-90.36,65.46
	c-8.94,15.68-16.97,32.29-19.46,50.16c-2.49,17.87,1.26,37.34,13.46,50.64c14.28,15.57,36.9,19.96,57.97,21.52
	c30.59,2.27,61.49,0.4,91.59-5.54"/>
<path class="st0" d="M761.56,139.75c-17.33-5.4-36.71,0.9-50.76,12.38s-23.59,27.52-31.66,43.78
	c-36.36,73.19-48.26,158.28-33.39,238.64c5.44,29.41,15.02,59.32,35.76,80.87c20.74,21.55,54.99,32.31,81.6,18.66
	c18.85-9.67,30.7-29.65,35.58-50.27c4.88-20.62,3.73-42.12,2.56-63.28c-18.1-0.5-36.14-2.8-53.79-6.84"/>
<path class="st0" d="M894.76,354.33c-10.2-7.2-24.77-5.56-35.25,1.22s-17.5,17.76-22.91,29.02c-12,24.99-17.52,53.37-13.75,80.84
	c1.9,13.85,6.33,27.72,15.26,38.48c6.66,8.03,15.53,13.96,24.79,18.75c6.97,3.6,14.49,6.68,22.34,6.7
	c12.38,0.04,23.8-7.71,31.03-17.76c7.23-10.05,10.88-22.2,13.78-34.24c5.32-22.16,8.47-45.37,3.92-67.7
	c-4.55-22.33-17.83-43.77-38.36-53.66"/>
<path class="st0" d="M229.61,590.87c-14.46,105.59-14.35,213.17,0.31,318.74c1.45,10.46,3.49,21.76,11.27,28.9
	c6.06,5.56,14.52,7.52,22.62,8.95c28.64,5.04,58.02,5.91,86.91,2.57"/>
<path class="st0" d="M376.02,641.16c-1.68,119.69-3.35,239.76,10.15,358.7c2.14,18.88,4.85,38.28,14.31,54.75
	s27.34,29.53,46.26,27.73c17.91-1.71,32.53-16.29,39.49-32.88c6.97-16.59,7.7-35.04,8.18-53.03c3.31-123.7-0.65-247.59-11.86-370.83
	"/>
<path class="st0" d="M490.44,595.24c42.82,3.25,85.95,2.5,128.64-2.24"/>
<path class="st0" d="M550.14,606.2c10.68,162.81,11.69,326.26,3.03,489.19"/>
<path class="st0" d="M610.25,644.32c30.82-2,61.65-3.99,92.47-5.99"/>
<path class="st0" d="M617.86,1111.25c3.31,3.97,9.43,3.56,14.52,2.65c25.11-4.48,49.6-12.48,72.51-23.7
	c4.23-2.07,8.81-4.71,10.13-9.24"/>
<path class="st0" d="M650.21,647.54c-8.63,151.37-5.7,303.4,8.74,454.32"/>
<path class="st0" d="M732.62,762.03c-7.53,1.9-13.22,7.94-18.07,14c-44.23,55.26-52.29,136.96-19.71,199.79
	c11.89,22.93,31.4,44.86,57.09,47.53c22.75,2.36,44.86-11.6,57.89-30.4c13.03-18.8,18.46-41.76,22.11-64.35
	c2.41-14.91,4.15-29.93,5.44-44.98c2.34-27.13,3.17-55.03-5.06-80.98c-8.23-25.95-27.06-49.91-53.11-57.82
	c-26.06-7.9-58.56,4.78-67.13,30.63"/>
<path class="st0" d="M895.6,1008.22c-23.44-104.85-35.58-212.23-36.15-319.67c-0.11-21.56,0.56-44.32,11.8-62.72
	c2.51-4.11,7.2-8.39,11.53-6.28c2.38,1.16,3.54,3.85,4.44,6.34c8,22.21,10.36,45.98,13.23,69.42
	c7.84,63.95,19.93,127.38,36.17,189.73c2.1,8.06,4.4,16.36,9.67,22.81s14.35,10.54,22.11,7.52c9.2-3.58,12.45-14.74,14.27-24.44
	c20.47-109.3,10.88-224.08-27.44-328.48"/>
</svg>
