<?xml version="1.0" encoding="utf-8"?>
<!-- Generator: Adobe Illustrator 21.1.0, SVG Export Plug-In . SVG Version: 6.00 Build 0)  -->
<svg version="1.1" id="Layer_8" xmlns="http://www.w3.org/2000/svg" xmlns:xlink="http://www.w3.org/1999/xlink" x="0px" y="0px"
	 viewBox="0 0 1200 1200" style="enable-background:new 0 0 1200 1200;" xml:space="preserve">
<style type="text/css">
	.st0{fill:#FFFFFF;stroke:#000000;stroke-miterlimit:10;}
	.st1{fill:#E2E254;stroke:#000000;stroke-miterlimit:10;}
	.st2{fill:none;stroke:#000000;stroke-miterlimit:10;}
	.st3{fill:#D6B883;stroke:#000000;stroke-miterlimit:10;}
</style>
<g>
	<path class="st0" d="M350.8,186.91c0,0,76.91-25.68,77.74-29.01c0.83-3.33-30.53-78.11-30.53-78.11
		c-26.3-11.31-53.59-20.32-81.46-26.89l-5.87-1.32c0.2,2.54,26.22,46.48,37.96,65.93c0,0-38.35,33.91-55.26,47.34
		c16.36,12.54,36.35,20.29,56.89,22.06"/>
	<path class="st1" d="M920.59,186.4c-10.71-43.52-22.95-88.25-51.02-123.19C842.96,30.1,803.92,8.58,763.02-2.92
		S679.2-16.6,636.72-16.38c-44.19,0.23-88.95,3.08-130.97,16.78c-42.02,13.7-81.45,39.26-104.67,76.86l1.75,0.87l-52.1,108.84
		c-36.12,26.3-69.45,56.45-99.21,89.78c-17.63,19.75-34.63,41.96-38.48,68.16c-3.85,26.2,10.24,56.75,36.08,62.52
		c0,0,532,801.23,676.74-65.03c2.03-0.48,2.97-2.77,3.56-4.77C943.91,288.61,932.81,236.04,920.59,186.4z M352.42,185.72
		c-0.54,0.39-1.08,0.79-1.62,1.18c17.77-36.05,35.13-72.31,52.03-108.77 M923.98,338.78c-1.38,0.45-0.91,2.26,0.19,3.16"/>
</g>
<path class="st2" d="M479.14,142.21c2.21-4.63,8.9-6.35,13.07-3.37c4.57,4.07,2.88,12.73-2.7,15.24
	c-5.58,2.51-12.85-1.36-14.41-7.28c-1.56-5.92,2.32-12.56,8.07-14.67c6.18-2.27,14.09,1.05,16.07,7.32
	c1.98,6.27-3.45,13.93-10.01,13.43c-6.56-0.49-10.55-9.95-5.87-14.57c4.68-4.63,14.54,0.63,12.77,6.97
	c-1.76,6.34-13.72,4.63-13.15-1.93c0.29-3.36,3.99-6.16,7.18-5.07s4.13,6.21,1.29,8.04c-2.84,1.83-7.24-1.94-5.55-4.87"/>
<g>
	<path class="st3" d="M-53.78,907.16c-77.64-4.78-154.71-18.93-228.98-42.06c7.04-71.91,4.01-144.79-8.98-215.87
		c-69.89,17.46-139.77,34.92-209.66,52.38c-3.97,0.99-8.26,1.97-12.06,0.43c-4.04-1.63-6.48-5.68-8.65-9.46
		c-0.14-0.24-0.28-0.48-0.42-0.72c-57.75,165.35-75.2,335.57,1.5,429.47l12.73,12.73l14.3,13.99c106.94,85.4,310.51,51.24,494-25.05
		c-47.87-25.76-94.82-53.22-140.72-82.33C-106.34,1000.02-77.05,955.05-53.78,907.16z"/>
	<path class="st3" d="M921.94,333.19c-4.21-1.14-8.79-2.27-12.8-0.57c-3.77,1.6-6.11,5.32-8.22,8.83
		c-37.07,61.76-74.14,123.53-111.21,185.29c-59.44-41.07-113.12-90.47-158.99-146.29c-68.87,36.17-133.37,80.66-191.65,132.18
		c-17.41-50.32-28.51-102.82-32.94-155.89c-53.04,11.88-105.66,25.66-157.72,41.29c-53.41,129.44-84.99,266.63-84.99,363.53
		c0,241.12,195.47,436.59,436.59,436.59s436.59-195.47,436.59-436.59c0-113.25-43.13-281.52-113.84-428.15
		C922.48,333.33,922.21,333.26,921.94,333.19z"/>
</g>
</svg>
