{
    "accessors" : [
        {
            "bufferView" : 0, 
            "componentType" : 5123, 
            "count" : 1920, 
            "max" : [
                1919
            ], 
            "min" : [
                0
            ], 
            "type" : "SCALAR"
        }, 
        {
            "bufferView" : 1, 
            "componentType" : 5126, 
            "count" : 1920, 
            "max" : [
                2.3922457695007324, 
                2.1972169876098633, 
                4.545560359954834
            ], 
            "min" : [
                -2.177325487136841, 
                -1.6155712604522705, 
                -4.2687811851501465
            ], 
            "type" : "VEC3"
        }, 
        {
            "bufferView" : 2, 
            "componentType" : 5126, 
            "count" : 1920, 
            "max" : [
                0.9920774102210999, 
                0.9435238838195801, 
                0.9882301092147827
            ], 
            "min" : [
                -0.9920774102210999, 
                -0.9435238838195801, 
                -0.9882299900054932
            ], 
            "type" : "VEC3"
        }, 
        {
            "bufferView" : 3, 
            "componentType" : 5123, 
            "count" : 1920, 
            "max" : [
                1919
            ], 
            "min" : [
                0
            ], 
            "type" : "SCALAR"
        }, 
        {
            "bufferView" : 4, 
            "componentType" : 5126, 
            "count" : 1920, 
            "max" : [
                2.3922457695007324, 
                2.1972169876098633, 
                4.545560359954834
            ], 
            "min" : [
                -2.177325487136841, 
                -1.6155712604522705, 
                -4.2687811851501465
            ], 
            "type" : "VEC3"
        }, 
        {
            "bufferView" : 5, 
            "componentType" : 5126, 
            "count" : 1920, 
            "max" : [
                0.9920774102210999, 
                0.9435238838195801, 
                0.9882301092147827
            ], 
            "min" : [
                -0.9920774102210999, 
                -0.9435238838195801, 
                -0.9882299900054932
            ], 
            "type" : "VEC3"
        }, 
        {
            "bufferView" : 6, 
            "componentType" : 5123, 
            "count" : 1920, 
            "max" : [
                1919
            ], 
            "min" : [
                0
            ], 
            "type" : "SCALAR"
        }, 
        {
            "bufferView" : 7, 
            "componentType" : 5126, 
            "count" : 1920, 
            "max" : [
                2.3922457695007324, 
                2.1972169876098633, 
                4.545560359954834
            ], 
            "min" : [
                -2.177325487136841, 
                -1.6155712604522705, 
                -4.2687811851501465
            ], 
            "type" : "VEC3"
        }, 
        {
            "bufferView" : 8, 
            "componentType" : 5126, 
            "count" : 1920, 
            "max" : [
                0.9920774102210999, 
                0.9435238838195801, 
                0.9882301092147827
            ], 
            "min" : [
                -0.9920774102210999, 
                -0.9435238838195801, 
                -0.9882299900054932
            ], 
            "type" : "VEC3"
        }, 
        {
            "bufferView" : 9, 
            "componentType" : 5123, 
            "count" : 1920, 
            "max" : [
                1919
            ], 
            "min" : [
                0
            ], 
            "type" : "SCALAR"
        }, 
        {
            "bufferView" : 10, 
            "componentType" : 5126, 
            "count" : 1920, 
            "max" : [
                2.3922457695007324, 
                2.1972169876098633, 
                4.545560359954834
            ], 
            "min" : [
                -2.177325487136841, 
                -1.6155712604522705, 
                -4.2687811851501465
            ], 
            "type" : "VEC3"
        }, 
        {
            "bufferView" : 11, 
            "componentType" : 5126, 
            "count" : 1920, 
            "max" : [
                0.9920774102210999, 
                0.9435238838195801, 
                0.9882301092147827
            ], 
            "min" : [
                -0.9920774102210999, 
                -0.9435238838195801, 
                -0.9882299900054932
            ], 
            "type" : "VEC3"
        }, 
        {
            "bufferView" : 12, 
            "componentType" : 5123, 
            "count" : 1920, 
            "max" : [
                1919
            ], 
            "min" : [
                0
            ], 
            "type" : "SCALAR"
        }, 
        {
            "bufferView" : 13, 
            "componentType" : 5126, 
            "count" : 1920, 
            "max" : [
                2.3922457695007324, 
                2.1972169876098633, 
                4.545560359954834
            ], 
            "min" : [
                -2.177325487136841, 
                -1.6155712604522705, 
                -4.2687811851501465
            ], 
            "type" : "VEC3"
        }, 
        {
            "bufferView" : 14, 
            "componentType" : 5126, 
            "count" : 1920, 
            "max" : [
                0.9920774102210999, 
                0.9435238838195801, 
                0.9882301092147827
            ], 
            "min" : [
                -0.9920774102210999, 
                -0.9435238838195801, 
                -0.9882299900054932
            ], 
            "type" : "VEC3"
        }, 
        {
            "bufferView" : 15, 
            "componentType" : 5123, 
            "count" : 1920, 
            "max" : [
                1919
            ], 
            "min" : [
                0
            ], 
            "type" : "SCALAR"
        }, 
        {
            "bufferView" : 16, 
            "componentType" : 5126, 
            "count" : 1920, 
            "max" : [
                2.3922457695007324, 
                2.1972169876098633, 
                4.545560359954834
            ], 
            "min" : [
                -2.177325487136841, 
                -1.6155712604522705, 
                -4.2687811851501465
            ], 
            "type" : "VEC3"
        }, 
        {
            "bufferView" : 17, 
            "componentType" : 5126, 
            "count" : 1920, 
            "max" : [
                0.9920774102210999, 
                0.9435238838195801, 
                0.9882301092147827
            ], 
            "min" : [
                -0.9920774102210999, 
                -0.9435238838195801, 
                -0.9882299900054932
            ], 
            "type" : "VEC3"
        }, 
        {
            "bufferView" : 18, 
            "componentType" : 5123, 
            "count" : 1920, 
            "max" : [
                1919
            ], 
            "min" : [
                0
            ], 
            "type" : "SCALAR"
        }, 
        {
            "bufferView" : 19, 
            "componentType" : 5126, 
            "count" : 1920, 
            "max" : [
                2.3922457695007324, 
                2.1972169876098633, 
                4.545560359954834
            ], 
            "min" : [
                -2.177325487136841, 
                -1.6155712604522705, 
                -4.2687811851501465
            ], 
            "type" : "VEC3"
        }, 
        {
            "bufferView" : 20, 
            "componentType" : 5126, 
            "count" : 1920, 
            "max" : [
                0.9920774102210999, 
                0.9435238838195801, 
                0.9882301092147827
            ], 
            "min" : [
                -0.9920774102210999, 
                -0.9435238838195801, 
                -0.9882299900054932
            ], 
            "type" : "VEC3"
        }, 
        {
            "bufferView" : 21, 
            "componentType" : 5123, 
            "count" : 1920, 
            "max" : [
                1919
            ], 
            "min" : [
                0
            ], 
            "type" : "SCALAR"
        }, 
        {
            "bufferView" : 22, 
            "componentType" : 5126, 
            "count" : 1920, 
            "max" : [
                2.3922457695007324, 
                2.1972169876098633, 
                4.545560359954834
            ], 
            "min" : [
                -2.177325487136841, 
                -1.6155712604522705, 
                -4.2687811851501465
            ], 
            "type" : "VEC3"
        }, 
        {
            "bufferView" : 23, 
            "componentType" : 5126, 
            "count" : 1920, 
            "max" : [
                0.9920774102210999, 
                0.9435238838195801, 
                0.9882301092147827
            ], 
            "min" : [
                -0.9920774102210999, 
                -0.9435238838195801, 
                -0.9882299900054932
            ], 
            "type" : "VEC3"
        }
    ], 
    "asset" : {
        "generator" : "Khronos Blender glTF 2.0 exporter", 
        "version" : "2.0"
    }, 
    "bufferViews" : [
        {
            "buffer" : 0, 
            "byteLength" : 3840, 
            "byteOffset" : 0, 
            "target" : 34963
        }, 
        {
            "buffer" : 0, 
            "byteLength" : 23040, 
            "byteOffset" : 3840, 
            "target" : 34962
        }, 
        {
            "buffer" : 0, 
            "byteLength" : 23040, 
            "byteOffset" : 26880, 
            "target" : 34962
        }, 
        {
            "buffer" : 0, 
            "byteLength" : 3840, 
            "byteOffset" : 49920, 
            "target" : 34963
        }, 
        {
            "buffer" : 0, 
            "byteLength" : 23040, 
            "byteOffset" : 53760, 
            "target" : 34962
        }, 
        {
            "buffer" : 0, 
            "byteLength" : 23040, 
            "byteOffset" : 76800, 
            "target" : 34962
        }, 
        {
            "buffer" : 0, 
            "byteLength" : 3840, 
            "byteOffset" : 99840, 
            "target" : 34963
        }, 
        {
            "buffer" : 0, 
            "byteLength" : 23040, 
            "byteOffset" : 103680, 
            "target" : 34962
        }, 
        {
            "buffer" : 0, 
            "byteLength" : 23040, 
            "byteOffset" : 126720, 
            "target" : 34962
        }, 
        {
            "buffer" : 0, 
            "byteLength" : 3840, 
            "byteOffset" : 149760, 
            "target" : 34963
        }, 
        {
            "buffer" : 0, 
            "byteLength" : 23040, 
            "byteOffset" : 153600, 
            "target" : 34962
        }, 
        {
            "buffer" : 0, 
            "byteLength" : 23040, 
            "byteOffset" : 176640, 
            "target" : 34962
        }, 
        {
            "buffer" : 0, 
            "byteLength" : 3840, 
            "byteOffset" : 199680, 
            "target" : 34963
        }, 
        {
            "buffer" : 0, 
            "byteLength" : 23040, 
            "byteOffset" : 203520, 
            "target" : 34962
        }, 
        {
            "buffer" : 0, 
            "byteLength" : 23040, 
            "byteOffset" : 226560, 
            "target" : 34962
        }, 
        {
            "buffer" : 0, 
            "byteLength" : 3840, 
            "byteOffset" : 249600, 
            "target" : 34963
        }, 
        {
            "buffer" : 0, 
            "byteLength" : 23040, 
            "byteOffset" : 253440, 
            "target" : 34962
        }, 
        {
            "buffer" : 0, 
            "byteLength" : 23040, 
            "byteOffset" : 276480, 
            "target" : 34962
        }, 
        {
            "buffer" : 0, 
            "byteLength" : 3840, 
            "byteOffset" : 299520, 
            "target" : 34963
        }, 
        {
            "buffer" : 0, 
            "byteLength" : 23040, 
            "byteOffset" : 303360, 
            "target" : 34962
        }, 
        {
            "buffer" : 0, 
            "byteLength" : 23040, 
            "byteOffset" : 326400, 
            "target" : 34962
        }, 
        {
            "buffer" : 0, 
            "byteLength" : 3840, 
            "byteOffset" : 349440, 
            "target" : 34963
        }, 
        {
            "buffer" : 0, 
            "byteLength" : 23040, 
            "byteOffset" : 353280, 
            "target" : 34962
        }, 
        {
            "buffer" : 0, 
            "byteLength" : 23040, 
            "byteOffset" : 376320, 
            "target" : 34962
        }
    ], 
    "buffers" : [
        {
            "byteLength" : 399360, 
            "uri" : "clouds_03.bin"
        }
    ], 
    "materials" : [
        {
            "name" : "Material", 
            "pbrMetallicRoughness" : {
                "baseColorFactor" : [
                    0.8000000715255737, 
                    0.7100934386253357, 
                    0.9872137308120728, 
                    1.0
                ], 
                "metallicFactor" : 0.0
            }
        }
    ], 
    "meshes" : [
        {
            "name" : "Icosphere.038", 
            "primitives" : [
                {
                    "attributes" : {
                        "NORMAL" : 2, 
                        "POSITION" : 1
                    }, 
                    "indices" : 0, 
                    "material" : 0
                }
            ]
        }, 
        {
            "name" : "Icosphere.026", 
            "primitives" : [
                {
                    "attributes" : {
                        "NORMAL" : 5, 
                        "POSITION" : 4
                    }, 
                    "indices" : 3, 
                    "material" : 0
                }
            ]
        }, 
        {
            "name" : "Icosphere.013", 
            "primitives" : [
                {
                    "attributes" : {
                        "NORMAL" : 8, 
                        "POSITION" : 7
                    }, 
                    "indices" : 6, 
                    "material" : 0
                }
            ]
        }, 
        {
            "name" : "Icosphere.018", 
            "primitives" : [
                {
                    "attributes" : {
                        "NORMAL" : 11, 
                        "POSITION" : 10
                    }, 
                    "indices" : 9, 
                    "material" : 0
                }
            ]
        }, 
        {
            "name" : "Icosphere.034", 
            "primitives" : [
                {
                    "attributes" : {
                        "NORMAL" : 14, 
                        "POSITION" : 13
                    }, 
                    "indices" : 12, 
                    "material" : 0
                }
            ]
        }, 
        {
            "name" : "Icosphere.023", 
            "primitives" : [
                {
                    "attributes" : {
                        "NORMAL" : 17, 
                        "POSITION" : 16
                    }, 
                    "indices" : 15, 
                    "material" : 0
                }
            ]
        }, 
        {
            "name" : "Icosphere.032", 
            "primitives" : [
                {
                    "attributes" : {
                        "NORMAL" : 20, 
                        "POSITION" : 19
                    }, 
                    "indices" : 18, 
                    "material" : 0
                }
            ]
        }, 
        {
            "name" : "Icosphere.030", 
            "primitives" : [
                {
                    "attributes" : {
                        "NORMAL" : 23, 
                        "POSITION" : 22
                    }, 
                    "indices" : 21, 
                    "material" : 0
                }
            ]
        }
    ], 
    "nodes" : [
        {
            "mesh" : 2, 
            "name" : "Icosphere.001", 
            "rotation" : [
                0.49252068996429443, 
                -0.6604440808296204, 
                -0.4273708760738373, 
                0.3722783029079437
            ], 
            "scale" : [
                -0.3605487048625946, 
                -0.36054864525794983, 
                -0.36054861545562744
            ], 
            "translation" : [
                2.973071575164795, 
                -1.3368635177612305, 
                -8.047588348388672
            ]
        }, 
        {
            "mesh" : 3, 
            "name" : "Icosphere.004", 
            "rotation" : [
                0.5036199688911438, 
                0.5380756258964539, 
                0.3002200722694397, 
                0.6055654287338257
            ], 
            "scale" : [
                -0.33684417605400085, 
                -0.3368441164493561, 
                -0.33684420585632324
            ], 
            "translation" : [
                -0.6963192224502563, 
                -0.9342787265777588, 
                -8.408071517944336
            ]
        }, 
        {
            "mesh" : 5, 
            "name" : "Icosphere.008", 
            "rotation" : [
                -0.013525874353945255, 
                0.027113625779747963, 
                -0.49781519174575806, 
                0.8667536973953247
            ], 
            "scale" : [
                -0.3605487048625946, 
                -0.36054864525794983, 
                -0.36054864525794983
            ], 
            "translation" : [
                -7.482529163360596, 
                -4.39185905456543, 
                0.3367100954055786
            ]
        }, 
        {
            "mesh" : 1, 
            "name" : "Icosphere.011", 
            "rotation" : [
                -0.4831971228122711, 
                -0.8699864149093628, 
                0.039064906537532806, 
                0.09010104835033417
            ], 
            "scale" : [
                -0.3368441164493561, 
                -0.3368441164493561, 
                -0.3368440866470337
            ], 
            "translation" : [
                -7.945375442504883, 
                -2.7415761947631836, 
                1.1866655349731445
            ]
        }, 
        {
            "mesh" : 7, 
            "name" : "Icosphere.014", 
            "rotation" : [
                -0.2619716227054596, 
                0.6365434527397156, 
                -0.3965918719768524, 
                0.6073698997497559
            ], 
            "scale" : [
                -0.43757230043411255, 
                -0.4375723600387573, 
                -0.43757233023643494
            ], 
            "translation" : [
                -0.8695169687271118, 
                -4.008658409118652, 
                7.339759826660156
            ]
        }, 
        {
            "mesh" : 4, 
            "name" : "Icosphere.017", 
            "rotation" : [
                0.31339406967163086, 
                0.6768794059753418, 
                0.15915685892105103, 
                0.6467515230178833
            ], 
            "scale" : [
                -0.33684417605400085, 
                -0.3368441164493561, 
                -0.3368441164493561
            ], 
            "translation" : [
                -1.4193766117095947, 
                -5.070577621459961, 
                -6.657928466796875
            ]
        }, 
        {
            "mesh" : 0, 
            "name" : "Icosphere.020", 
            "rotation" : [
                -0.028214380145072937, 
                -0.402757853269577, 
                0.16948118805885315, 
                0.8990362882614136
            ], 
            "scale" : [
                -0.33684414625167847, 
                -0.3368440866470337, 
                -0.33684417605400085
            ], 
            "translation" : [
                3.2767539024353027, 
                -7.1718854904174805, 
                3.143303394317627
            ]
        }, 
        {
            "mesh" : 0, 
            "name" : "Icosphere.025", 
            "rotation" : [
                0.10922690480947495, 
                -0.009677725844085217, 
                0.6328928470611572, 
                0.7664349675178528
            ], 
            "scale" : [
                -0.33684414625167847, 
                -0.3368440866470337, 
                -0.33684417605400085
            ], 
            "translation" : [
                8.454751968383789, 
                0.3565061092376709, 
                -0.6659300327301025
            ]
        }, 
        {
            "mesh" : 6, 
            "name" : "Icosphere.026", 
            "rotation" : [
                -0.11185196042060852, 
                -0.23287782073020935, 
                0.5562118887901306, 
                0.7898643016815186
            ], 
            "scale" : [
                -0.33684417605400085, 
                -0.3368441164493561, 
                -0.33684417605400085
            ], 
            "translation" : [
                7.190823554992676, 
                -1.1800322532653809, 
                4.3535027503967285
            ]
        }, 
        {
            "children" : [
                0, 
                1, 
                2, 
                3, 
                4, 
                5, 
                6, 
                7, 
                8
            ], 
            "name" : "parent_moon.003", 
            "rotation" : [
                0.045251067727804184, 
                0.9128315448760986, 
                0.09525037556886673, 
                0.3944849371910095
            ], 
            "scale" : [
                -0.18850554525852203, 
                -0.18850556015968323, 
                -0.18850556015968323
            ]
        }
    ], 
    "scene" : 0, 
    "scenes" : [
        {
            "name" : "Scene", 
            "nodes" : [
                9
            ]
        }
    ]
}
