{
    "accessors" : [
        {
            "bufferView" : 0, 
            "componentType" : 5123, 
            "count" : 1440, 
            "max" : [
                959
            ], 
            "min" : [
                0
            ], 
            "type" : "SCALAR"
        }, 
        {
            "bufferView" : 1, 
            "componentType" : 5126, 
            "count" : 960, 
            "max" : [
                1.3138123750686646, 
                1.6764107942581177, 
                1.4139353036880493
            ], 
            "min" : [
                -1.4040377140045166, 
                -1.5648505687713623, 
                -1.6324212551116943
            ], 
            "type" : "VEC3"
        }, 
        {
            "bufferView" : 2, 
            "componentType" : 5126, 
            "count" : 960, 
            "max" : [
                0.9921748042106628, 
                0.9903795123100281, 
                0.9942800402641296
            ], 
            "min" : [
                -0.9790813326835632, 
                -0.9988118410110474, 
                -0.9951894283294678
            ], 
            "type" : "VEC3"
        }, 
        {
            "bufferView" : 3, 
            "componentType" : 5126, 
            "count" : 960, 
            "max" : [
                0.8974592685699463, 
                0.9206154942512512, 
                0.8502870202064514, 
                1.0
            ], 
            "min" : [
                -0.9992530941963196, 
                -0.9996157288551331, 
                -0.9983583092689514, 
                -1.0
            ], 
            "type" : "VEC4"
        }, 
        {
            "bufferView" : 4, 
            "componentType" : 5126, 
            "count" : 960, 
            "max" : [
                0.9993777275085449, 
                0.999377679778263
            ], 
            "min" : [
                0.0006223202217370272, 
                0.009553730487823486
            ], 
            "type" : "VEC2"
        }, 
        {
            "bufferView" : 5, 
            "componentType" : 5126, 
            "count" : 960, 
            "max" : [
                1.0, 
                0.47843137383461, 
                0.4901960790157318, 
                1.0
            ], 
            "min" : [
                1.0, 
                0.4745098054409027, 
                0.48627451062202454, 
                1.0
            ], 
            "type" : "VEC4"
        }
    ], 
    "asset" : {
        "generator" : "Khronos Blender glTF 2.0 exporter", 
        "version" : "2.0"
    }, 
    "bufferViews" : [
        {
            "buffer" : 0, 
            "byteLength" : 2880, 
            "byteOffset" : 0, 
            "target" : 34963
        }, 
        {
            "buffer" : 0, 
            "byteLength" : 11520, 
            "byteOffset" : 2880, 
            "target" : 34962
        }, 
        {
            "buffer" : 0, 
            "byteLength" : 11520, 
            "byteOffset" : 14400, 
            "target" : 34962
        }, 
        {
            "buffer" : 0, 
            "byteLength" : 15360, 
            "byteOffset" : 25920, 
            "target" : 34962
        }, 
        {
            "buffer" : 0, 
            "byteLength" : 7680, 
            "byteOffset" : 41280, 
            "target" : 34962
        }, 
        {
            "buffer" : 0, 
            "byteLength" : 15360, 
            "byteOffset" : 48960, 
            "target" : 34962
        }
    ], 
    "buffers" : [
        {
            "byteLength" : 64320, 
            "uri" : "land2.bin"
        }
    ], 
    "materials" : [
        {
            "emissiveFactor" : [
                0.019999999552965164, 
                0.019999999552965164, 
                0.019999999552965164
            ], 
            "name" : "Material.001", 
            "pbrMetallicRoughness" : {
                "metallicFactor" : 0.0
            }
        }
    ], 
    "meshes" : [
        {
            "name" : "Icosphere.007", 
            "primitives" : [
                {
                    "attributes" : {
                        "COLOR_0" : 5, 
                        "NORMAL" : 2, 
                        "POSITION" : 1, 
                        "TANGENT" : 3, 
                        "TEXCOORD_0" : 4
                    }, 
                    "indices" : 0, 
                    "material" : 0
                }
            ]
        }
    ], 
    "nodes" : [
        {
            "mesh" : 0, 
            "name" : "Icosphere.001"
        }
    ], 
    "scene" : 0, 
    "scenes" : [
        {
            "name" : "Scene", 
            "nodes" : [
                0
            ]
        }
    ]
}
